<svg width="368" height="368" viewBox="0 0 368 368" fill="none" xmlns="http://www.w3.org/2000/svg">
<mask id="mask0_512_23" style="mask-type:alpha" maskUnits="userSpaceOnUse" x="0" y="0" width="368" height="368">
<rect width="368" height="368" fill="#C4C4C4"/>
</mask>
<g mask="url(#mask0_512_23)">
<path d="M56.4767 187.436L186.63 57.2824L316.784 187.436L186.63 317.59L56.4767 187.436Z" fill="#F68712"/>
<path d="M15.4501 15.5487L186.631 57.2828L56.4768 187.436L15.4501 15.5487Z" fill="#FAB20B"/>
<path d="M17.5183 109.616L15.1577 15.4869L56.8304 187.79L17.5183 109.616Z" fill="#E9DE12"/>
<path d="M102.419 17.0198L187.203 57.9755L15.0964 15.9019L102.419 17.0198Z" fill="#FBC708"/>
<path d="M109.605 354.816L15.4763 357.176L186.984 317.237L109.605 354.816Z" fill="#E9DE12"/>
<path d="M16.4874 270.631L57.4432 185.846L15.3696 357.953L16.4874 270.631Z" fill="#FBC708"/>
<path d="M263.764 18.103L358.165 16.6098L186.277 57.6365L263.764 18.103Z" fill="#FBC708"/>
<path d="M356.933 103.259L315.977 188.044L358.05 15.937L356.933 103.259Z" fill="#F1471D"/>
<path d="M354.794 264.224L356.287 358.625L315.261 186.737L354.794 264.224Z" fill="#F1471D"/>
<path d="M269.638 357.392L184.854 316.436L356.961 358.51L269.638 357.392Z" fill="#F78911"/>
<path d="M15.0964 358.263L56.8305 187.082L186.984 317.236L15.0964 358.263Z" fill="#F89C0E"/>
<path d="M357.811 359.324L186.631 317.59L316.784 187.437L357.811 359.324Z" fill="#F25C19"/>
<path d="M358.165 16.6093L316.431 187.79L186.277 57.6361L358.165 16.6093Z" fill="#F47216"/>
</g>
</svg>
